<?xml version="1.0" encoding="UTF-8" standalone="no"?>
<!-- Created with Inkscape (http://www.inkscape.org/) -->

<svg
   width="128"
   height="128"
   viewBox="0 0 40 40"
   version="1.1"
   id="svg2"
   xmlns:xlink="http://www.w3.org/1999/xlink"
   xmlns="http://www.w3.org/2000/svg"
   xmlns:svg="http://www.w3.org/2000/svg"
   xmlns:rdf="http://www.w3.org/1999/02/22-rdf-syntax-ns#"
   xmlns:cc="http://creativecommons.org/ns#">
  <defs
     id="defs1">
    <linearGradient
       id="linearGradient2">
      <stop
         style="stop-color:#0090ff;stop-opacity:1;"
         offset="0"
         id="stop2" />
      <stop
         style="stop-color:#0054ee;stop-opacity:1;"
         offset="1"
         id="stop5" />
    </linearGradient>
    <linearGradient
       xlink:href="#linearGradient2"
       id="linearGradient5"
       x1="16"
       y1="0"
       x2="16"
       y2="32"
       gradientUnits="userSpaceOnUse"
       gradientTransform="translate(4,4)" />
  </defs>
  <rect
     style="display:inline;fill:url(#linearGradient5)"
     width="32"
     height="32"
     x="4"
     y="4"
     rx="6"
     filter="url(#shadow)"
     id="rect1" />
  <g
     transform="translate(7,4)"
     id="g1"
     style="display:inline">
    <path
       style="display:inline;fill:#ffffff"
       d="m 4.7,16 c 0,0 2.3428079,3.721959 10.3,3 5.903406,-0.535618 10,-4 10,-4 0,0 3,5.375 -2,9.375 -3,3 -13,2 -15.1,1 C 5.7163366,23.393152 3.4993228,21.873106 4.7,16 Z"
       id="path1"
       transform="translate(-1.7,-1.1)" />
    <path
       style="fill:#ffffff"
       d="M 14,5.175 C 15.718077,6.24573 17.903291,12.556022 13,16 13,16 21.259929,14.308389 23.127314,11.266196 24.127314,9.866196 23,5.375 22,5.075 c -1,-0.4 -8,0.1 -8,0.1 z"
       id="path2" />
    <path
       style="fill:#ffffff"
       d="m 8.0945688,6.775 c 2.0052272,1.9105988 1.6873452,7.116575 -0.6,8.6 0,0 4.6181992,-1.292492 5.6181992,-2.292492 2.882727,-2.505147 0.392639,-6.2565649 0.392639,-6.2565649 z"
       id="path2-0" />
  </g>
  <metadata
     id="metadata1">
    <rdf:RDF>
      <cc:Work
         rdf:about="">
        <cc:license
           rdf:resource="http://creativecommons.org/licenses/by/4.0/" />
      </cc:Work>
      <cc:License
         rdf:about="http://creativecommons.org/licenses/by/4.0/">
        <cc:permits
           rdf:resource="http://creativecommons.org/ns#Reproduction" />
        <cc:permits
           rdf:resource="http://creativecommons.org/ns#Distribution" />
        <cc:requires
           rdf:resource="http://creativecommons.org/ns#Notice" />
        <cc:requires
           rdf:resource="http://creativecommons.org/ns#Attribution" />
        <cc:permits
           rdf:resource="http://creativecommons.org/ns#DerivativeWorks" />
      </cc:License>
    </rdf:RDF>
  </metadata>
</svg>
