<?xml version="1.0" encoding="UTF-8" standalone="no"?>
<!-- Created with Inkscape (http://www.inkscape.org/) -->

<svg
   width="128"
   height="128"
   viewBox="-4 -4 40 40"
   version="1.1"
   xmlns="http://www.w3.org/2000/svg"
   xmlns:svg="http://www.w3.org/2000/svg">
   <defs>
      <filter id="shadow">
         <feDropShadow dx="0" dy="1" stdDeviation="1.2" flood-opacity="0.2" />
      </filter>
   </defs>
   <rect
      style="display:inline;fill:#0090ff"
      width="32"
      height="32"
      x="0"
      y="0"
      rx="6.0"
      filter="url(#shadow)" />
   <g
      transform="translate(1.3,-1.1)">
      <path
         style="fill:#ffffff"
         d="m 4.7,16 c 0,0 2,5 10.3,3 5,-1 10,-4 10,-4 0,0 3,6 -2,10 C 20,28 10,27 7.9,26 6.6,25 3.8,24 4.7,16 Z"
         id="path1" />
      <g
         transform="translate(1.7,1.1)">
         <path
            style="fill:#ffffff"
            d="m 14,5.8 c 0,0 2,1.1 2,5.2 0,3 -3,5 -3,5 0,0 7,-1 10,-5 1,-1.4 0,-5 -1,-5.3 -1,-0.4 -8,0.1 -8,0.1 z"
            id="path2" />
         <path
            style="fill:#ffffff"
            d="m 7.9,7.4 c 0,0 1.6,1.4 1.3,4.6 -0.2,3 -1.9,4 -1.9,4 0,0 4.7,-1 5.7,-2 1,-3 1,-6.3 -1,-6.6 -1,-0.3 -4.1,0 -4.1,0 z"
            id="path2-0" />
      </g>
   </g>
</svg>
