<?xml version="1.0" encoding="UTF-8" standalone="no"?>
<!-- Created with Inkscape (http://www.inkscape.org/) -->

<svg
   width="16"
   height="15.999999"
   viewBox="0 0 4.2333332 4.233333"
   version="1.1"
   id="svg1"
   xmlns="http://www.w3.org/2000/svg"
   xmlns:svg="http://www.w3.org/2000/svg">
  <defs
     id="defs1" />
  <path
     style="fill:#0090ff;fill-opacity:1;stroke:#1d00ff;stroke-width:0;stroke-linecap:round;stroke-linejoin:round;stroke-miterlimit:1.8"
     d="m 0.4919596,1.1885796 10e-9,-0.43203658 A 0.26458333,0.26458333 135 0 1 0.75654294,0.4919597 l 2.72024746,-3e-8 A 0.26458332,0.26458332 45 0 1 3.7413737,0.75654299 V 1.1885796 A 0.08010943,0.08010943 163.15496 0 1 3.5946092,1.2330163 L 3.4819612,1.0640444 A 0.37544518,0.37544518 21.136838 0 0 3.0785132,0.90806865 L 2.7795267,0.98281524 A 0.33887205,0.33887205 127.98188 0 0 2.5228432,1.3115694 V 3.0706135 A 0.49437855,0.49437855 61.845038 0 0 2.7429898,3.4819613 L 2.9119616,3.5946091 A 0.08010941,0.08010941 106.84504 0 1 2.8675249,3.7413736 H 1.3658081 A 0.08010938,0.08010938 73.154966 0 1 1.3213714,3.5946092 l 0.168972,-0.112648 A 0.49437846,0.49437846 118.15497 0 0 1.71049,3.0706135 V 1.3115694 A 0.33887203,0.33887203 52.018118 0 0 1.4538065,0.98281525 L 1.1548198,0.90806864 A 0.37544507,0.37544507 158.86315 0 0 0.75137189,1.0640444 L 0.638724,1.2330163 A 0.08010937,0.08010937 16.845034 0 1 0.4919596,1.1885796 Z"
     id="path28" />
</svg>
