<?xml version="1.0" encoding="UTF-8" standalone="no"?>
<!-- Created with Inkscape (http://www.inkscape.org/) -->

<svg
   width="16"
   height="15.999999"
   viewBox="0 0 4.2333332 4.233333"
   version="1.1"
   id="svg1"
   xmlns="http://www.w3.org/2000/svg"
   xmlns:svg="http://www.w3.org/2000/svg">
  <defs
     id="defs1" />
  <path
     id="rect1"
     clip-path="none"
     style="fill:#0090ff;fill-opacity:1;stroke-width:0.529167;stroke-linecap:round;stroke-linejoin:round;stroke-miterlimit:1.8"
     d="M 1.0211263,0.49195963 A 0.52916665,0.52916665 0 0 0 0.49195963,1.0211263 V 3.212207 A 0.52916665,0.52916665 0 0 0 1.0211263,3.7413736 H 3.212207 A 0.52916665,0.52916665 0 0 0 3.7413736,3.212207 V 1.0211263 A 0.52916665,0.52916665 0 0 0 3.212207,0.49195963 Z M 1.3043131,1.3043131 A 0.40611443,0.4061144 0 0 1 1.7104899,1.7104899 0.40611443,0.4061144 0 0 1 1.3043131,2.1166666 0.40611443,0.4061144 0 0 1 0.89813638,1.7104899 0.40611443,0.4061144 0 0 1 1.3043131,1.3043131 Z m 1.624707,0 A 0.40611446,0.4061144 0 0 1 3.3351969,1.7104899 0.40611446,0.4061144 0 0 1 2.9290201,2.1166666 0.40611446,0.4061144 0 0 1 2.5228434,1.7104899 0.40611446,0.4061144 0 0 1 2.9290201,1.3043131 Z M 1.3203328,2.2577433 a 0.2645835,0.2645835 0 0 1 0.068213,0.013953 0.2645835,0.2645835 0 0 1 0.1524455,0.1328084 c 0,0 0.018822,0.04596 0.1054199,0.1152385 0.086598,0.069278 0.2249829,0.1441773 0.4707723,0.1441772 0.2457896,-10e-8 0.3821072,-0.074899 0.4687052,-0.1441772 0.086598,-0.069278 0.1054199,-0.1152385 0.1054199,-0.1152385 A 0.2645835,0.2645835 0 0 1 3.0468424,2.2851318 0.2645835,0.2645835 0 0 1 3.1662149,2.6406656 c 0,0 -0.08289,0.1571592 -0.2501139,0.2909383 C 2.7488771,3.0653831 2.4805655,3.1936034 2.1171834,3.1936035 1.7538012,3.1936036 1.4834227,3.0653831 1.3161987,2.9316039 1.1489749,2.7978247 1.0681518,2.6406656 1.0681518,2.6406656 A 0.2645835,0.2645835 0 0 1 1.1854573,2.2851318 0.2645835,0.2645835 0 0 1 1.3203328,2.2577433 Z" />
</svg>
